<?xml version="1.0" encoding="UTF-8"?>
<svg style="fill: #c0f2f3; stroke: #1e2021; stroke-width: 5px" version="1.1" width="250px" height="250px" viewBox="167 139 370 310" preserveAspectRatio="none" xmlns="http://www.w3.org/2000/svg" xmlns:xlink="http://www.w3.org/1999/xlink">
    <path d="m309.68 364h21.559v-59.922c0-34.441 6.7188-53.199 35.281-67.762-14.559 15.398-22.398 30.238-23.52 47.602 52.359-0.83984 74.199-38.359 77-82.039-66.922 3.9219-101.08 27.719-104.72 72.238-17.359-23.52-50.121-33.879-91.281-33.879 1.3984 43.68 21.559 80.922 77 81.762 2.2383-12.039-4.1992-25.48-23.52-46.199 30.238 10.359 32.199 13.719 32.199 54.602zm-127.68 28h336c14 0 14 0 14-14v-224c0-14 0-14-14-14h-336c-14 0-14 0-14 14v224c0 14 0 14 14 14zm28 56h280c14 0 14 0 14-14v-14h-308v14c0 14 0 14 14 14zm-7-104.16c-9.5195-49.559-9.5195-106.12 0-155.96 1.3984-6.7188 6.1602-11.48 13.16-12.32 49.84-10.078 161.84-10.078 211.68 0 7 0.83984 11.762 5.6016 13.16 12.602 9.5195 49.559 9.5195 106.12 0 155.68-1.3984 7-6.1602 11.762-13.16 12.602-49.84 10.078-161.84 10.078-211.68 0-7-0.83984-11.762-5.6016-13.16-12.602zm287-91.84c-7.8398 0-14-6.1602-14-14s6.1602-14 14-14 14 6.1602 14 14-6.1602 14-14 14zm0-56c-7.8398 0-14-6.1602-14-14s6.1602-14 14-14 14 6.1602 14 14-6.1602 14-14 14z"/>
</svg>
